# xmcd
#
# Track frame offsets: 
#        183
#        15123
#        33190
#        44428
#        58090
#        80040
#        98518
#        115650
#        141155
#        154808
#        165110
#        180258
#        195273
#
# Disc length: 2988 seconds
#
# Revision: 36
# Processed by: cddbd v1.5.2PL0 Copyright (c) Steve Scherf et al.
# Submitted via: ExactAudioCopyFreeDBPlugin 1.0
#
DISCID=8b0baa0d
DTITLE=The Rolling Stones - Singles Collection (The London Years) CD 3
DYEAR=1989
DGENRE=Rock
TTITLE0=Street Fighting Man (1968)
TTITLE1=No Expectations (1968)
TTITLE2=Surprise, Surprise (1965)
TTITLE3=Honky Tonk Women (1969)
TTITLE4=You Can't Always Get What You Want (1969)
TTITLE5=Memo From Turner (1970)
TTITLE6=Brown Sugar (1971)
TTITLE7=Wild Horses (1971)
TTITLE8=I Don't Know Why (Aka Don't Know Why I Love You) (1975)
TTITLE9=Try A Little Harder (1975)
TTITLE10=Out Of Time (1975)
TTITLE11=Jiving Sister Fanny (1975)
TTITLE12=Sympathy For The Devil (1968)
EXTD=
EXTT0=
EXTT1=
EXTT2=
EXTT3=
EXTT4=
EXTT5=
EXTT6=
EXTT7=
EXTT8=
EXTT9=
EXTT10=
EXTT11=
EXTT12=
PLAYORDER=
